<?xml version="1.0" encoding="utf-8"?>
<!-- Generator: Adobe Illustrator 14.0.0, SVG Export Plug-In . SVG Version: 6.00 Build 43363)  -->
<!DOCTYPE svg PUBLIC "-//W3C//DTD SVG 1.1//EN" "http://www.w3.org/Graphics/SVG/1.1/DTD/svg11.dtd">
<svg version="1.1" id="Layer_1" xmlns="http://www.w3.org/2000/svg" xmlns:xlink="http://www.w3.org/1999/xlink" x="0px" y="0px"
	 width="24px" height="24px" viewBox="0 0 24 24" enable-background="new 0 0 24 24" xml:space="preserve">
<g id="XMLID_1_">
	<g>
		<path fill="#4CAF50" d="M21,3.5v15.12c0,0.229-0.15,0.41-0.36,0.479L15,21l-0.62-0.22L15,19V7.11L9,5l0.62-1.78L15,5.1l5.34-2.07
			L20.5,3C20.78,3,21,3.22,21,3.5z"/>
		<path fill="#4CAF50" d="M15,19l-0.62,1.78L9,18.9L3.66,20.97L3.5,21C3.22,21,3,20.78,3,20.5V5.38C3,5.15,3.15,4.97,3.36,4.9L9,3
			l0.62,0.22L9,5v11.89L15,19z"/>
	</g>
	<g>
	</g>
</g>
<path fill="none" d="M0,0h24v24H0V0z"/>
</svg>
